<svg width="240" height="175" viewBox="0 0 240 175" fill="none" xmlns="http://www.w3.org/2000/svg">
<rect width="240" height="175" fill="white"/>
<path d="M100.605 86.0018H113.387C119.46 86.0018 123.459 83.5756 123.459 78.7234C123.459 75.0842 121.533 73.3011 118.438 72.1319C120.363 71.065 121.977 69.3988 121.977 66.4027C121.977 64.5027 121.355 63.0266 120.126 61.8135C118.586 60.2936 116.157 59.4605 113.105 59.4605H100.619L100.605 86.0018ZM106.366 70.1881V64.5758H112.202C114.705 64.5758 116.083 65.555 116.083 67.3089C116.083 69.355 114.424 70.1881 111.817 70.1881H106.366ZM106.366 80.8718V75.0403H113.194C116.231 75.0403 117.578 76.1365 117.578 77.9195C117.578 79.9657 116.008 80.8718 113.387 80.8718H106.366ZM128.332 86.0018H148.816V80.7987H134.212V75.2303H146.89V70.0273H134.212V64.6489H148.608V59.4605H128.317L128.332 86.0018ZM154.074 86.0018H173.388V80.6964H159.969V59.4605H154.059L154.074 86.0018ZM182.008 86.1918H187.222L198.108 59.4605H191.724L184.689 78.1534L177.668 59.4605H171.136L182.008 86.1918ZM213.467 86.4402C218.385 86.4402 222.191 84.5402 224.961 82.231V70.7142H213.275V75.7565H219.229V79.5418C217.733 80.6087 215.793 81.1349 213.66 81.1349C208.891 81.1349 205.514 77.5688 205.514 72.7165C205.514 68.1127 208.935 64.3712 213.23 64.3712C216.341 64.3712 218.192 65.3504 220.251 67.075L223.983 62.632C221.184 60.2789 218.251 58.9928 213.423 58.9928C205.277 58.9928 199.322 65.175 199.322 72.7165C199.337 80.6526 205.099 86.4402 213.467 86.4402ZM100.605 102.137H101.597V98.337H106.381V97.4309H101.597V94.3178H106.959V93.4117H100.605V102.137V102.137ZM112.794 102.283C115.49 102.283 117.312 100.179 117.312 97.767C117.312 95.3409 115.505 93.2509 112.809 93.2509C110.114 93.2509 108.292 95.3555 108.292 97.767C108.307 100.208 110.114 102.283 112.794 102.283ZM112.824 101.392C110.795 101.392 109.343 99.7693 109.343 97.7963C109.343 95.794 110.78 94.2009 112.794 94.2009C114.824 94.2009 116.275 95.8232 116.275 97.7963C116.29 99.7839 114.853 101.392 112.824 101.392ZM119.43 102.137H120.422V98.7462H122.955L125.517 102.137H126.747L124.021 98.5709C125.414 98.3224 126.421 97.4747 126.421 96.0278C126.421 95.3117 126.154 94.7124 125.74 94.2886C125.192 93.7332 124.318 93.4117 123.222 93.4117H119.415L119.43 102.137ZM120.437 97.8693V94.3178H123.177C124.599 94.3178 125.443 94.9609 125.443 96.0424C125.443 97.1824 124.481 97.8693 123.162 97.8693H120.437ZM135.382 102.254C137.144 102.254 138.403 101.289 138.403 99.7839C138.403 98.4247 137.485 97.7232 135.515 97.2847C133.575 96.8609 133.116 96.4078 133.116 95.5894C133.116 94.7855 133.856 94.1571 134.997 94.1571C135.915 94.1571 136.73 94.4347 137.559 95.1071L138.137 94.3471C137.248 93.6309 136.315 93.2655 135.041 93.2655C133.367 93.2655 132.138 94.274 132.138 95.6478C132.138 97.1093 133.071 97.7524 135.1 98.1909C136.952 98.5709 137.396 99.0386 137.396 99.8424C137.396 100.734 136.611 101.348 135.426 101.348C134.197 101.348 133.323 100.924 132.39 100.12L131.768 100.851C132.849 101.801 133.975 102.254 135.382 102.254ZM143.987 102.269C146.194 102.269 147.675 100.953 147.675 98.4101V93.4117H146.683V98.4832C146.683 100.398 145.646 101.362 144.017 101.362C142.328 101.362 141.306 100.31 141.306 98.4247V93.4117H140.314V98.4832C140.299 100.953 141.795 102.269 143.987 102.269ZM154.074 102.283C155.688 102.283 156.695 101.713 157.614 100.807L156.962 100.12C156.118 100.909 155.318 101.377 154.103 101.377C152.163 101.377 150.667 99.7839 150.667 97.7816C150.667 95.7501 152.133 94.1863 154.103 94.1863C155.303 94.1863 156.132 94.6832 156.873 95.3847L157.525 94.6832C156.636 93.8648 155.703 93.2655 154.089 93.2655C151.497 93.2655 149.615 95.3117 149.615 97.7816C149.63 100.31 151.526 102.283 154.074 102.283ZM163.153 102.283C164.753 102.283 165.76 101.713 166.693 100.807L166.041 100.12C165.197 100.909 164.397 101.377 163.183 101.377C161.242 101.377 159.746 99.7839 159.746 97.7816C159.746 95.7501 161.213 94.1863 163.183 94.1863C164.382 94.1863 165.212 94.6832 165.952 95.3847L166.604 94.6832C165.715 93.8648 164.782 93.2655 163.168 93.2655C160.576 93.2655 158.695 95.3117 158.695 97.7816C158.71 100.31 160.591 102.283 163.153 102.283ZM168.426 102.137H174.869V101.231H169.418V98.1909H174.247V97.2847H169.418V94.3032H174.81V93.3971H168.411V102.137H168.426ZM179.934 102.254C181.697 102.254 182.956 101.289 182.956 99.7839C182.956 98.4247 182.038 97.7232 180.068 97.2847C178.127 96.8609 177.668 96.4078 177.668 95.5894C177.668 94.7855 178.409 94.1571 179.549 94.1571C180.468 94.1571 181.282 94.4347 182.112 95.1071L182.704 94.3471C181.801 93.6309 180.882 93.2655 179.594 93.2655C177.92 93.2655 176.691 94.274 176.691 95.6478C176.691 97.1093 177.624 97.7524 179.653 98.1909C181.504 98.5709 181.964 99.0386 181.964 99.8424C181.964 100.734 181.179 101.348 179.994 101.348C178.764 101.348 177.876 100.924 176.957 100.12L176.335 100.851C177.372 101.801 178.527 102.254 179.934 102.254ZM187.888 102.254C189.651 102.254 190.91 101.289 190.91 99.7839C190.91 98.4247 189.991 97.7232 188.021 97.2847C186.081 96.8609 185.622 96.4078 185.622 95.5894C185.622 94.7855 186.362 94.1571 187.503 94.1571C188.421 94.1571 189.236 94.4347 190.065 95.1071L190.643 94.3471C189.739 93.6309 188.821 93.2655 187.533 93.2655C185.859 93.2655 184.63 94.274 184.63 95.6478C184.63 97.1093 185.563 97.7524 187.592 98.1909C189.443 98.5709 189.888 99.0386 189.888 99.8424C189.888 100.734 189.103 101.348 187.918 101.348C186.688 101.348 185.814 100.924 184.881 100.12L184.259 100.851C185.326 101.801 186.481 102.254 187.888 102.254ZM192.939 102.137H193.931V98.337H198.715V97.4309H193.931V94.3178H199.293V93.4117H192.939V102.137ZM204.758 102.269C206.965 102.269 208.446 100.953 208.446 98.4101V93.4117H207.454V98.4832C207.454 100.398 206.417 101.362 204.788 101.362C203.099 101.362 202.077 100.31 202.077 98.4247V93.4117H201.085V98.4832C201.085 100.953 202.566 102.269 204.758 102.269ZM210.816 102.137H216.785V101.231H211.808V93.4117H210.816V102.137ZM100.605 115.934H107.048V115.028H101.597V111.988H106.426V111.082H101.597V108.1H106.988V107.194H100.59V115.934H100.605ZM108.632 112.689H112.143V111.681H108.632V112.689ZM118.26 116.095C119.859 116.095 120.867 115.525 121.8 114.618L121.148 113.931C120.304 114.721 119.489 115.188 118.289 115.188C116.349 115.188 114.853 113.595 114.853 111.593C114.853 109.562 116.32 107.998 118.289 107.998C119.489 107.998 120.319 108.495 121.059 109.196L121.711 108.495C120.822 107.676 119.889 107.077 118.275 107.077C115.683 107.077 113.802 109.123 113.802 111.593C113.831 114.107 115.712 116.095 118.26 116.095ZM127.398 116.095C130.094 116.095 131.916 113.99 131.916 111.578C131.916 109.152 130.109 107.062 127.413 107.062C124.718 107.062 122.896 109.167 122.896 111.578C122.896 114.005 124.703 116.095 127.398 116.095ZM127.413 115.174C125.384 115.174 123.933 113.551 123.933 111.578C123.933 109.576 125.369 107.983 127.384 107.983C129.413 107.983 130.864 109.605 130.864 111.578C130.879 113.581 129.442 115.174 127.413 115.174ZM134.034 115.934H134.997V108.889L138.226 113.551H138.285L141.514 108.875V115.934H142.506V107.208H141.499L138.27 111.973L135.056 107.208H134.049L134.034 115.934ZM144.994 115.934H145.957V108.889L149.186 113.551H149.23L152.459 108.875V115.934H153.452V107.208H152.444L149.216 111.973L145.987 107.208H144.98L144.994 115.934ZM155.97 115.934H162.413V115.028H156.962V111.988H161.79V111.082H156.962V108.1H162.353V107.194H155.955L155.97 115.934ZM164.427 115.934H165.419V112.543H167.952L170.514 115.934H171.744L169.018 112.368C170.411 112.105 171.418 111.257 171.418 109.825C171.418 109.108 171.151 108.509 170.736 108.071C170.174 107.515 169.315 107.194 168.219 107.194H164.427V115.934ZM165.419 111.652V108.129H168.159C169.581 108.129 170.411 108.772 170.411 109.854C170.411 110.994 169.463 111.681 168.144 111.681L165.419 111.652ZM177.594 116.095C179.209 116.095 180.216 115.525 181.134 114.618L180.482 113.931C179.638 114.721 178.838 115.188 177.624 115.188C175.683 115.188 174.188 113.595 174.188 111.593C174.188 109.562 175.654 107.998 177.624 107.998C178.823 107.998 179.653 108.495 180.408 109.196L181.06 108.495C180.171 107.676 179.238 107.077 177.624 107.077C175.032 107.077 173.151 109.123 173.151 111.593C173.166 114.107 175.047 116.095 177.594 116.095ZM182.882 115.934H189.325V115.028H183.874V111.988H188.703V111.082H183.874V108.1H189.266V107.194H182.867V115.934H182.882Z" fill="black"/>
<path d="M84.9932 54.1992H15.0391V120.801H84.9932V54.1992Z" fill="white"/>
<path d="M21.2894 62.6904C21.6596 62.442 21.8226 62.0912 21.8226 61.6527C21.8226 61.1266 21.5708 60.8197 21.1116 60.5566C20.6525 60.3228 20.1785 60.3374 19.6897 60.3374H19.6305V58.4082C19.9563 58.3935 20.2822 58.3643 20.534 58.2474C20.9191 58.072 21.1561 57.6628 21.1561 57.2682C21.1561 56.8297 20.8746 56.4936 20.4896 56.3328C20.1045 56.1574 19.6009 56.2305 19.1713 56.2305H18.1197V58.4082V60.3374V63.0704H19.6305C20.2081 63.0558 20.7562 63.0266 21.2894 62.6904ZM16.4016 119.456H34.1308L16.4016 112.309V119.456ZM33.0792 58.452C32.6349 57.1513 31.4352 56.3182 29.9985 56.3182C28.5766 56.3182 27.2435 57.2243 26.8584 58.4666L26.7696 58.7297H33.1829L33.0792 58.452ZM52.2303 90.9417C41.5661 80.4187 41.7735 66.3589 52.3636 55.9236C52.4969 55.792 52.6154 55.6751 52.7487 55.5582H38.6779V63.0558H44.4247V64.985H36.6784V55.5436H33.331C34.4715 56.5228 35.2121 57.9697 35.2121 59.5482C35.2121 59.8405 35.1676 60.1474 35.1232 60.4689C35.1232 60.4835 35.1232 60.4981 35.1084 60.5274H26.814L26.9029 60.8051C27.3028 62.0912 28.5173 62.9535 29.8948 62.9535C30.8723 62.9535 31.7906 62.6027 32.3535 62.0474H34.7381C33.9975 63.6989 31.9832 64.9558 29.9985 64.9558C27.051 64.9558 24.6515 62.6027 24.6515 59.7089C24.6515 58.0136 25.3921 56.5374 26.5622 55.5582H22.6224C22.9631 56.0113 23.1556 56.552 23.1556 57.122C23.1556 57.9551 22.7557 58.7882 21.9707 59.1535C23.1556 59.5335 23.8221 60.5274 23.8221 61.7404C23.8221 62.7781 23.3333 63.6696 22.5039 64.2835C21.6448 64.9119 20.534 64.9558 19.4972 64.985H16.4016V99.5208L40.0406 109.576L28.0582 82.041L37.3301 72.8919L56.1405 119.12L55.7999 119.456H83.6156V93.6893C73.7513 100.865 61.443 100.032 52.2303 90.9417ZM75.3657 55.5436L71.6628 61.7112C67.3527 59.782 62.776 60.162 59.3398 63.5527C53.7263 69.0919 56.1553 77.2618 61.1616 82.2018C66.2567 87.2294 74.4918 89.334 80.1053 83.7948C83.8082 80.141 84.7265 75.4641 81.2754 71.3719L74.3141 78.241L67.6045 71.6203L83.6304 55.8359V55.5436H75.3657Z" fill="#DA2128"/>
<path d="M197.35 112.086H196.649V113.648H195.771V109.382H197.355C197.859 109.382 198.248 109.495 198.521 109.719C198.795 109.944 198.932 110.261 198.932 110.671C198.932 110.962 198.868 111.206 198.741 111.401C198.616 111.594 198.426 111.748 198.17 111.864L199.093 113.607V113.648H198.149L197.35 112.086ZM196.649 111.374H197.358C197.579 111.374 197.75 111.319 197.871 111.207C197.992 111.094 198.053 110.939 198.053 110.742C198.053 110.54 197.995 110.382 197.88 110.267C197.767 110.152 197.592 110.094 197.355 110.094H196.649V111.374Z" fill="black"/>
<circle cx="197.202" cy="111.515" r="4.17937" stroke="black" stroke-width="0.8"/>
</svg>
