<svg width="315" height="102" viewBox="0 0 315 102" fill="none" xmlns="http://www.w3.org/2000/svg">
<path d="M128.396 48.3632H147.576C156.688 48.3632 162.689 44.6737 162.689 37.2949C162.689 31.7608 159.8 29.0493 155.155 27.2713C158.044 25.6488 160.467 23.1151 160.467 18.5589C160.467 15.6696 159.533 13.4248 157.689 11.5801C155.377 9.26868 151.732 8.00183 147.154 8.00183H128.418L128.396 48.3632ZM137.041 24.3153V15.7807H145.798C149.554 15.7807 151.621 17.2698 151.621 19.9369C151.621 23.0484 149.132 24.3153 145.22 24.3153H137.041ZM137.041 40.562V31.6941H147.287C151.843 31.6941 153.866 33.361 153.866 36.0725C153.866 39.1841 151.51 40.562 147.576 40.562H137.041ZM170.001 48.3632H200.739V40.4509H178.825V31.983H197.85V24.0708H178.825V15.8918H200.428V8.00183H169.979L170.001 48.3632ZM208.629 48.3632H237.611V40.2953H217.475V8.00183H208.607L208.629 48.3632ZM250.546 48.6521H258.37L274.705 8.00183H265.126L254.569 36.4281L244.034 8.00183H234.233L250.546 48.6521ZM297.753 49.0299C305.132 49.0299 310.844 46.1406 315 42.629V25.1154H297.464V32.7832H306.399V38.5395C304.154 40.162 301.242 40.9621 298.042 40.9621C290.885 40.9621 285.818 35.5391 285.818 28.1603C285.818 21.1593 290.952 15.4696 297.397 15.4696C302.065 15.4696 304.843 16.9587 307.932 19.5813L313.533 12.8247C309.332 9.24645 304.932 7.29062 297.686 7.29062C285.462 7.29062 276.528 16.692 276.528 28.1603C276.55 40.2287 285.196 49.0299 297.753 49.0299ZM128.396 72.9H129.885V67.1214H137.063V65.7434H129.885V61.0094H137.93V59.6314H128.396V72.9V72.9ZM146.687 73.1223C150.732 73.1223 153.466 69.9218 153.466 66.2546C153.466 62.5652 150.754 59.387 146.709 59.387C142.664 59.387 139.93 62.5874 139.93 66.2546C139.953 69.9662 142.664 73.1223 146.687 73.1223ZM146.731 71.7665C143.687 71.7665 141.509 69.2995 141.509 66.2991C141.509 63.2542 143.664 60.8316 146.687 60.8316C149.732 60.8316 151.91 63.2986 151.91 66.2991C151.932 69.3217 149.776 71.7665 146.731 71.7665ZM156.644 72.9H158.133V67.7437H161.934L165.779 72.9H167.623L163.534 67.477C165.623 67.0992 167.134 65.8101 167.134 63.6098C167.134 62.5207 166.734 61.6095 166.112 60.965C165.29 60.1204 163.978 59.6314 162.334 59.6314H156.622L156.644 72.9ZM158.155 66.4102V61.0094H162.267C164.401 61.0094 165.668 61.9873 165.668 63.632C165.668 65.3656 164.223 66.4102 162.245 66.4102H158.155ZM180.581 73.0778C183.226 73.0778 185.115 71.6109 185.115 69.3217C185.115 67.2547 183.737 66.1879 180.781 65.5212C177.869 64.8766 177.18 64.1876 177.18 62.943C177.18 61.7206 178.292 60.7649 180.003 60.7649C181.381 60.7649 182.603 61.1872 183.848 62.2096L184.715 61.0539C183.381 59.9648 181.981 59.4092 180.07 59.4092C177.558 59.4092 175.713 60.9427 175.713 63.0319C175.713 65.2545 177.114 66.2324 180.158 66.8991C182.937 67.477 183.603 68.1882 183.603 69.4106C183.603 70.7664 182.425 71.6998 180.647 71.6998C178.803 71.6998 177.491 71.0553 176.091 69.8329L175.158 70.9442C176.78 72.3888 178.469 73.0778 180.581 73.0778ZM193.494 73.1C196.805 73.1 199.028 71.0997 199.028 67.2325V59.6314H197.539V67.3437C197.539 70.2552 195.983 71.7221 193.538 71.7221C191.004 71.7221 189.471 70.1218 189.471 67.2548V59.6314H187.982V67.3437C187.96 71.0997 190.204 73.1 193.494 73.1ZM208.629 73.1223C211.052 73.1223 212.563 72.2555 213.941 70.8775L212.963 69.8329C211.696 71.0331 210.496 71.7443 208.674 71.7443C205.762 71.7443 203.517 69.3217 203.517 66.2768C203.517 63.1875 205.718 60.8094 208.674 60.8094C210.474 60.8094 211.719 61.565 212.83 62.6319L213.808 61.565C212.474 60.3204 211.074 59.4092 208.651 59.4092C204.762 59.4092 201.939 62.5207 201.939 66.2768C201.962 70.1218 204.806 73.1223 208.629 73.1223ZM222.253 73.1223C224.654 73.1223 226.165 72.2555 227.565 70.8775L226.587 69.8329C225.32 71.0331 224.12 71.7443 222.298 71.7443C219.386 71.7443 217.142 69.3217 217.142 66.2768C217.142 63.1875 219.342 60.8094 222.298 60.8094C224.098 60.8094 225.343 61.565 226.454 62.6319L227.432 61.565C226.098 60.3204 224.698 59.4092 222.276 59.4092C218.386 59.4092 215.564 62.5207 215.564 66.2768C215.586 70.1218 218.408 73.1223 222.253 73.1223ZM230.166 72.9H239.834V71.522H231.655V66.8991H238.9V65.5212H231.655V60.9872H239.745V59.6092H230.143V72.9H230.166ZM247.435 73.0778C250.08 73.0778 251.969 71.6109 251.969 69.3217C251.969 67.2547 250.591 66.1879 247.635 65.5212C244.723 64.8766 244.034 64.1876 244.034 62.943C244.034 61.7206 245.146 60.7649 246.857 60.7649C248.235 60.7649 249.457 61.1872 250.702 62.2096L251.591 61.0539C250.235 59.9648 248.857 59.4092 246.924 59.4092C244.412 59.4092 242.567 60.9427 242.567 63.0319C242.567 65.2545 243.968 66.2324 247.012 66.8991C249.791 67.477 250.48 68.1882 250.48 69.4106C250.48 70.7664 249.302 71.6998 247.524 71.6998C245.679 71.6998 244.345 71.0553 242.967 69.8329L242.034 70.9442C243.59 72.3888 245.323 73.0778 247.435 73.0778ZM259.37 73.0778C262.015 73.0778 263.904 71.6109 263.904 69.3217C263.904 67.2547 262.526 66.1879 259.57 65.5212C256.658 64.8766 255.969 64.1876 255.969 62.943C255.969 61.7206 257.081 60.7649 258.792 60.7649C260.17 60.7649 261.392 61.1872 262.637 62.2096L263.504 61.0539C262.148 59.9648 260.77 59.4092 258.836 59.4092C256.325 59.4092 254.48 60.9427 254.48 63.0319C254.48 65.2545 255.88 66.2324 258.925 66.8991C261.703 67.477 262.37 68.1882 262.37 69.4106C262.37 70.7664 261.192 71.6998 259.414 71.6998C257.57 71.6998 256.258 71.0553 254.858 69.8329L253.925 70.9442C255.525 72.3888 257.258 73.0778 259.37 73.0778ZM266.949 72.9H268.438V67.1214H275.617V65.7434H268.438V61.0094H276.483V59.6314H266.949V72.9ZM284.685 73.1C287.996 73.1 290.219 71.0997 290.219 67.2325V59.6314H288.73V67.3437C288.73 70.2552 287.174 71.7221 284.729 71.7221C282.195 71.7221 280.662 70.1218 280.662 67.2548V59.6314H279.173V67.3437C279.173 71.0997 281.395 73.1 284.685 73.1ZM293.775 72.9H302.732V71.522H295.264V59.6314H293.775V72.9ZM128.396 93.8808H138.064V92.5028H129.885V87.8799H137.13V86.5019H129.885V81.968H137.975V80.59H128.373V93.8808H128.396ZM140.442 88.9467H145.709V87.4132H140.442V88.9467ZM154.888 94.1253C157.289 94.1253 158.8 93.2585 160.2 91.8805L159.222 90.8359C157.955 92.0361 156.733 92.7473 154.933 92.7473C152.021 92.7473 149.776 90.3247 149.776 87.2798C149.776 84.1905 151.977 81.8124 154.933 81.8124C156.733 81.8124 157.978 82.568 159.089 83.6349L160.067 82.568C158.733 81.3234 157.333 80.4122 154.91 80.4122C151.021 80.4122 148.198 83.5237 148.198 87.2798C148.243 91.1026 151.065 94.1253 154.888 94.1253ZM168.601 94.1253C172.646 94.1253 175.38 90.9248 175.38 87.2576C175.38 83.5682 172.669 80.39 168.624 80.39C164.578 80.39 161.845 83.5904 161.845 87.2576C161.845 90.947 164.556 94.1253 168.601 94.1253ZM168.624 92.7251C165.579 92.7251 163.401 90.258 163.401 87.2576C163.401 84.2127 165.556 81.7902 168.579 81.7902C171.624 81.7902 173.802 84.2572 173.802 87.2576C173.824 90.3025 171.668 92.7251 168.624 92.7251ZM178.558 93.8808H180.003V83.1681L184.848 90.258H184.937L189.782 83.1459V93.8808H191.271V80.6122H189.76L184.915 87.8577L180.092 80.6122H178.58L178.558 93.8808ZM195.005 93.8808H196.45V83.1681L201.295 90.258H201.362L206.207 83.1459V93.8808H207.696V80.6122H206.184L201.339 87.8577L196.494 80.6122H194.983L195.005 93.8808ZM211.474 93.8808H221.142V92.5028H212.963V87.8799H220.209V86.5019H212.963V81.968H221.053V80.59H211.452L211.474 93.8808ZM224.165 93.8808H225.654V88.7245H229.454L233.299 93.8808H235.144L231.055 88.4578C233.144 88.0577 234.655 86.7687 234.655 84.5906C234.655 83.5015 234.255 82.5903 233.633 81.9235C232.788 81.0789 231.499 80.59 229.854 80.59H224.165V93.8808ZM225.654 87.3687V82.0124H229.766C231.899 82.0124 233.144 82.9903 233.144 84.635C233.144 86.3686 231.721 87.4132 229.743 87.4132L225.654 87.3687ZM243.923 94.1253C246.346 94.1253 247.857 93.2585 249.235 91.8805L248.257 90.8359C246.99 92.0361 245.79 92.7473 243.968 92.7473C241.056 92.7473 238.811 90.3247 238.811 87.2798C238.811 84.1905 241.012 81.8124 243.968 81.8124C245.768 81.8124 247.012 82.568 248.146 83.6349L249.124 82.568C247.79 81.3234 246.39 80.4122 243.968 80.4122C240.078 80.4122 237.256 83.5237 237.256 87.2798C237.278 91.1026 240.1 94.1253 243.923 94.1253ZM251.858 93.8808H261.526V92.5028H253.347V87.8799H260.592V86.5019H253.347V81.968H261.437V80.59H251.835V93.8808H251.858Z" fill="white"/>
<path fill-rule="evenodd" clip-rule="evenodd" d="M0 0H104.971V101.281H0V0ZM10.1802 11.3359C10.1802 12.0026 9.93571 12.536 9.38007 12.9139C8.57996 13.4251 7.75762 13.4695 6.89083 13.4917H4.62384V9.33558V6.40183V3.09025H6.20184C6.34605 3.09025 6.49582 3.08468 6.64792 3.07903C7.17562 3.05943 7.73133 3.03879 8.1799 3.24582C8.75776 3.4903 9.18004 4.00149 9.18004 4.66825C9.18004 5.26834 8.82444 5.89065 8.24658 6.15735C7.86874 6.33515 7.37979 6.37961 6.89083 6.40183V9.33558H6.97973C7.02054 9.33558 7.06129 9.33552 7.10197 9.33545C7.79225 9.33428 8.46272 9.33315 9.11337 9.66896C9.80235 10.069 10.1802 10.5358 10.1802 11.3359ZM28.6495 99.2373H2.04569V88.3691L28.6495 99.2373ZM22.4486 3.2236C24.6045 3.2236 26.4047 4.49045 27.0715 6.46851L27.2271 6.89079H17.6035L17.7368 6.49073C18.3147 4.60157 20.315 3.2236 22.4486 3.2236ZM56.009 2.62351C40.1178 18.4924 39.8066 39.8733 55.8089 55.8756C69.6331 69.6998 88.1024 70.9666 102.905 60.0539V99.2373H61.1653L61.6764 98.7261L33.4502 28.4272L19.5371 42.3403L37.5174 84.213L2.04569 68.9219V16.4033H6.6908C8.24658 16.3588 9.91348 16.2921 11.2026 15.3364C12.4472 14.403 13.1806 13.0472 13.1806 11.4692C13.1806 9.62451 12.1805 8.11319 10.4024 7.53533C11.5804 6.97969 12.1805 5.71284 12.1805 4.446C12.1805 3.57921 11.8915 2.75687 11.3804 2.06788H17.2923C15.5365 3.55698 14.4252 5.80174 14.4252 8.37989C14.4252 12.7805 18.0258 16.3588 22.4486 16.3588C25.4268 16.3588 28.4495 14.4474 29.5607 11.936H25.9824C25.1379 12.7805 23.7599 13.3139 22.293 13.3139C20.2261 13.3139 18.4036 12.0026 17.8035 10.0468L17.6701 9.62451H30.1164C30.1386 9.58006 30.1386 9.55784 30.1386 9.53561C30.1416 9.51337 30.1447 9.49117 30.1477 9.46902C30.2112 9.00423 30.2719 8.5597 30.2719 8.13541C30.2719 5.73507 29.1607 3.53475 27.4493 2.04565H32.4723V16.4033H44.0961V13.4695H35.4727V2.06788H56.5868C56.3868 2.24568 56.209 2.42348 56.009 2.62351ZM84.9687 11.4248L90.525 2.04565H102.927V2.49016L78.8789 26.4936L88.947 36.5617L99.3929 26.1158C104.571 32.3389 103.193 39.451 97.6371 45.0074C89.2137 53.4308 76.8564 50.2303 69.2108 42.5848C61.6987 35.0726 58.0537 22.6486 66.4771 14.2252C71.6334 9.06888 78.5011 8.49102 84.9687 11.4248Z" fill="white"/>
</svg>
