<svg width="240" height="175" viewBox="0 0 240 175" fill="none" xmlns="http://www.w3.org/2000/svg">
<rect width="240" height="175" fill="black"/>
<path d="M105.564 85.8314H118.347C124.419 85.8314 128.418 83.3727 128.418 78.4554C128.418 74.7674 126.493 72.9604 123.397 71.7755C125.323 70.6943 126.937 69.0058 126.937 65.9695C126.937 64.044 126.315 62.5481 125.086 61.3187C123.545 59.7783 121.116 58.9341 118.065 58.9341H105.579L105.564 85.8314ZM111.326 69.8056V64.1181H117.162C119.665 64.1181 121.042 65.1104 121.042 66.8878C121.042 68.9613 119.383 69.8056 116.777 69.8056H111.326ZM111.326 80.6326V74.7229H118.154C121.19 74.7229 122.538 75.8338 122.538 77.6408C122.538 79.7143 120.968 80.6326 118.347 80.6326H111.326ZM133.291 85.8314H153.775V80.5586H139.171V74.9155H151.85V69.6427H139.171V64.1921H153.568V58.9341H133.276L133.291 85.8314ZM159.033 85.8314H178.347V80.4549H164.928V58.9341H159.018L159.033 85.8314ZM186.967 86.024H192.181L203.067 58.9341H196.683L189.648 77.8777L182.628 58.9341H176.096L186.967 86.024ZM218.426 86.2757C223.344 86.2757 227.15 84.3503 229.92 82.0101V70.3388H218.234V75.4487H224.188V79.2848C222.692 80.366 220.752 80.8992 218.619 80.8992C213.85 80.8992 210.473 77.2853 210.473 72.3679C210.473 67.7024 213.894 63.9107 218.189 63.9107C221.3 63.9107 223.151 64.9031 225.21 66.6508L228.942 62.1482C226.143 59.7635 223.21 58.4601 218.382 58.4601C210.236 58.4601 204.282 64.7253 204.282 72.3679C204.296 80.4105 210.058 86.2757 218.426 86.2757ZM105.564 102.183H106.557V98.3321H111.341V97.4138H106.557V94.259H111.918V93.3407H105.564V102.183V102.183ZM117.754 102.331C120.45 102.331 122.272 100.198 122.272 97.7545C122.272 95.2958 120.465 93.1778 117.769 93.1778C115.073 93.1778 113.251 95.3106 113.251 97.7545C113.266 100.228 115.073 102.331 117.754 102.331ZM117.784 101.428C115.755 101.428 114.303 99.7836 114.303 97.7841C114.303 95.755 115.74 94.1405 117.754 94.1405C119.783 94.1405 121.235 95.7846 121.235 97.7841C121.25 99.7985 119.813 101.428 117.784 101.428ZM124.39 102.183H125.382V98.7469H127.915L130.477 102.183H131.706L128.981 98.5691C130.373 98.3173 131.38 97.4583 131.38 95.992C131.38 95.2662 131.114 94.6589 130.699 94.2294C130.151 93.6666 129.277 93.3407 128.181 93.3407H124.375L124.39 102.183ZM125.397 97.8582V94.259H128.137C129.559 94.259 130.403 94.9107 130.403 96.0068C130.403 97.162 129.44 97.8582 128.122 97.8582H125.397ZM140.341 102.302C142.104 102.302 143.363 101.324 143.363 99.7985C143.363 98.421 142.444 97.7101 140.475 97.2657C138.534 96.8362 138.075 96.377 138.075 95.5476C138.075 94.733 138.816 94.0961 139.956 94.0961C140.874 94.0961 141.689 94.3775 142.519 95.0588L143.096 94.2887C142.208 93.5629 141.274 93.1926 140.001 93.1926C138.327 93.1926 137.098 94.2146 137.098 95.6069C137.098 97.088 138.031 97.7397 140.06 98.184C141.911 98.5691 142.356 99.0431 142.356 99.8577C142.356 100.761 141.571 101.383 140.386 101.383C139.156 101.383 138.283 100.954 137.349 100.139L136.727 100.88C137.809 101.842 138.934 102.302 140.341 102.302ZM148.947 102.316C151.154 102.316 152.635 100.983 152.635 98.4062V93.3407H151.642V98.4802C151.642 100.421 150.606 101.398 148.976 101.398C147.288 101.398 146.266 100.332 146.266 98.421V93.3407H145.273V98.4802C145.259 100.983 146.755 102.316 148.947 102.316ZM159.033 102.331C160.648 102.331 161.655 101.754 162.573 100.835L161.921 100.139C161.077 100.939 160.277 101.413 159.063 101.413C157.122 101.413 155.627 99.7985 155.627 97.7693C155.627 95.7105 157.093 94.1257 159.063 94.1257C160.262 94.1257 161.092 94.6293 161.832 95.3403L162.484 94.6293C161.595 93.7999 160.662 93.1926 159.048 93.1926C156.456 93.1926 154.575 95.2662 154.575 97.7693C154.59 100.332 156.486 102.331 159.033 102.331ZM168.112 102.331C169.712 102.331 170.719 101.754 171.652 100.835L171.001 100.139C170.156 100.939 169.357 101.413 168.142 101.413C166.202 101.413 164.706 99.7985 164.706 97.7693C164.706 95.7105 166.172 94.1257 168.142 94.1257C169.342 94.1257 170.171 94.6293 170.912 95.3403L171.563 94.6293C170.675 93.7999 169.742 93.1926 168.127 93.1926C165.535 93.1926 163.654 95.2662 163.654 97.7693C163.669 100.332 165.55 102.331 168.112 102.331ZM173.385 102.183H179.828V101.265H174.378V98.184H179.206V97.2657H174.378V94.2442H179.769V93.3259H173.37V102.183H173.385ZM184.894 102.302C186.656 102.302 187.915 101.324 187.915 99.7985C187.915 98.421 186.997 97.7101 185.027 97.2657C183.087 96.8362 182.628 96.377 182.628 95.5476C182.628 94.733 183.368 94.0961 184.509 94.0961C185.427 94.0961 186.241 94.3775 187.071 95.0588L187.663 94.2887C186.76 93.5629 185.842 93.1926 184.553 93.1926C182.879 93.1926 181.65 94.2146 181.65 95.6069C181.65 97.088 182.583 97.7397 184.612 98.184C186.464 98.5691 186.923 99.0431 186.923 99.8577C186.923 100.761 186.138 101.383 184.953 101.383C183.724 101.383 182.835 100.954 181.917 100.139L181.294 100.88C182.331 101.842 183.487 102.302 184.894 102.302ZM192.847 102.302C194.61 102.302 195.869 101.324 195.869 99.7985C195.869 98.421 194.951 97.7101 192.981 97.2657C191.04 96.8362 190.581 96.377 190.581 95.5476C190.581 94.733 191.322 94.0961 192.462 94.0961C193.381 94.0961 194.195 94.3775 195.025 95.0588L195.602 94.2887C194.699 93.5629 193.78 93.1926 192.492 93.1926C190.818 93.1926 189.589 94.2146 189.589 95.6069C189.589 97.088 190.522 97.7397 192.551 98.184C194.402 98.5691 194.847 99.0431 194.847 99.8577C194.847 100.761 194.062 101.383 192.877 101.383C191.648 101.383 190.774 100.954 189.841 100.139L189.219 100.88C190.285 101.842 191.44 102.302 192.847 102.302ZM197.898 102.183H198.89V98.3321H203.674V97.4138H198.89V94.259H204.252V93.3407H197.898V102.183ZM209.717 102.316C211.924 102.316 213.405 100.983 213.405 98.4062V93.3407H212.413V98.4802C212.413 100.421 211.376 101.398 209.747 101.398C208.058 101.398 207.037 100.332 207.037 98.421V93.3407H206.044V98.4802C206.044 100.983 207.525 102.316 209.717 102.316ZM215.775 102.183H221.744V101.265H216.768V93.3407H215.775V102.183ZM105.564 116.165H112.007V115.247H106.557V112.166H111.385V111.248H106.557V108.226H111.948V107.308H105.55V116.165H105.564ZM113.592 112.877H117.102V111.855H113.592V112.877ZM123.219 116.328C124.819 116.328 125.826 115.75 126.759 114.832L126.108 114.136C125.263 114.936 124.449 115.41 123.249 115.41C121.309 115.41 119.813 113.795 119.813 111.766C119.813 109.707 121.279 108.122 123.249 108.122C124.449 108.122 125.278 108.626 126.019 109.337L126.67 108.626C125.782 107.797 124.849 107.189 123.234 107.189C120.642 107.189 118.761 109.263 118.761 111.766C118.791 114.314 120.672 116.328 123.219 116.328ZM132.358 116.328C135.054 116.328 136.875 114.195 136.875 111.751C136.875 109.292 135.068 107.174 132.373 107.174C129.677 107.174 127.855 109.307 127.855 111.751C127.855 114.21 129.662 116.328 132.358 116.328ZM132.373 115.395C130.344 115.395 128.892 113.751 128.892 111.751C128.892 109.722 130.329 108.108 132.343 108.108C134.372 108.108 135.824 109.752 135.824 111.751C135.839 113.78 134.402 115.395 132.373 115.395ZM138.993 116.165H139.956V109.026L143.185 113.751H143.244L146.473 109.011V116.165H147.466V107.323H146.458L143.229 112.151L140.015 107.323H139.008L138.993 116.165ZM149.954 116.165H150.917V109.026L154.145 113.751H154.19L157.419 109.011V116.165H158.411V107.323H157.404L154.175 112.151L150.946 107.323H149.939L149.954 116.165ZM160.929 116.165H167.372V115.247H161.921V112.166H166.75V111.248H161.921V108.226H167.313V107.308H160.914L160.929 116.165ZM169.386 116.165H170.379V112.729H172.911L175.474 116.165H176.703L173.978 112.551C175.37 112.284 176.377 111.425 176.377 109.974C176.377 109.248 176.111 108.641 175.696 108.196C175.133 107.634 174.274 107.308 173.178 107.308H169.386V116.165ZM170.379 111.825V108.256H173.119C174.541 108.256 175.37 108.907 175.37 110.003C175.37 111.159 174.422 111.855 173.104 111.855L170.379 111.825ZM182.553 116.328C184.168 116.328 185.175 115.75 186.093 114.832L185.442 114.136C184.597 114.936 183.798 115.41 182.583 115.41C180.643 115.41 179.147 113.795 179.147 111.766C179.147 109.707 180.613 108.122 182.583 108.122C183.783 108.122 184.612 108.626 185.368 109.337L186.019 108.626C185.131 107.797 184.198 107.189 182.583 107.189C179.991 107.189 178.11 109.263 178.11 111.766C178.125 114.314 180.006 116.328 182.553 116.328ZM187.841 116.165H194.284V115.247H188.833V112.166H193.662V111.248H188.833V108.226H194.225V107.308H187.826V116.165H187.841Z" fill="white"/>
<path fill-rule="evenodd" clip-rule="evenodd" d="M20 53.6016H89.9537V121.097H20V53.6016ZM26.7842 61.156C26.7842 61.6003 26.6213 61.9558 26.251 62.2076C25.7178 62.5483 25.1698 62.5779 24.5921 62.5927H23.0814V59.823V57.8679V55.661H24.133C24.2291 55.661 24.3289 55.6573 24.4303 55.6535C24.7819 55.6405 25.1523 55.6267 25.4512 55.7647C25.8363 55.9276 26.1177 56.2683 26.1177 56.7126C26.1177 57.1125 25.8807 57.5272 25.4956 57.705C25.2438 57.8235 24.918 57.8531 24.5921 57.8679V59.823H24.6514C24.6786 59.823 24.7057 59.8229 24.7329 59.8229C25.1929 59.8221 25.6397 59.8214 26.0733 60.0451C26.5324 60.3117 26.7842 60.6228 26.7842 61.156ZM39.0924 119.735H21.3633V112.492L39.0924 119.735ZM34.96 55.7499C36.3967 55.7499 37.5965 56.5941 38.0408 57.9123L38.1445 58.1937H31.7312L31.8201 57.9271C32.2051 56.6682 33.5382 55.7499 34.96 55.7499ZM57.3251 55.35C46.735 65.9252 46.5277 80.1737 57.1918 90.8378C66.4044 100.05 78.7126 100.895 88.5769 93.6223V119.735H60.7613L61.102 119.394L42.2916 72.5459L33.0198 81.8177L45.0021 109.722L21.3633 99.532V64.533H24.4588C25.4956 64.5033 26.6065 64.4589 27.4655 63.822C28.295 63.1999 28.7837 62.2965 28.7837 61.2449C28.7837 60.0155 28.1172 59.0084 26.9323 58.6233C27.7173 58.253 28.1172 57.4087 28.1172 56.5645C28.1172 55.9869 27.9247 55.4388 27.584 54.9797H31.5238C30.3537 55.972 29.6132 57.468 29.6132 59.1861C29.6132 62.1187 32.0126 64.5033 34.96 64.5033C36.9448 64.5033 38.9591 63.2296 39.6997 61.5559H37.315C36.7522 62.1187 35.8339 62.4742 34.8564 62.4742C33.4789 62.4742 32.2644 61.6003 31.8645 60.2969L31.7756 60.0155H40.0699C40.0848 59.9859 40.0848 59.9711 40.0848 59.9563C40.0868 59.9414 40.0888 59.9266 40.0908 59.9119C40.1331 59.6021 40.1736 59.3059 40.1736 59.0232C40.1736 57.4235 39.4331 55.9572 38.2926 54.9649H41.6399V64.533H49.3862V62.5779H43.6395V54.9797H57.7102C57.5769 55.0982 57.4584 55.2167 57.3251 55.35ZM76.6242 61.2152L80.327 54.9649H88.5917V55.2611L72.5659 71.2573L79.2754 77.9668L86.2367 71.0055C89.6878 75.1527 88.7695 79.8923 85.0666 83.5951C79.4532 89.2086 71.2181 87.0757 66.123 81.9807C61.1168 76.9744 58.6877 68.6949 64.3012 63.0815C67.7374 59.6452 72.3141 59.2601 76.6242 61.2152Z" fill="white"/>
</svg>
