<svg width="316" height="100" viewBox="0 0 316 100" fill="none" xmlns="http://www.w3.org/2000/svg">
<g clip-path="url(#clip0)">
<path d="M128.473 47.7508H147.665C156.783 47.7508 162.788 44.108 162.788 36.8225C162.788 31.3584 159.897 28.6812 155.249 26.9256C158.14 25.3237 160.564 22.8221 160.564 18.3235C160.564 15.4707 159.63 13.2544 157.784 11.433C155.471 9.15079 151.824 7.89997 147.243 7.89997H128.496L128.473 47.7508ZM137.124 24.0071V15.5805H145.886C149.645 15.5805 151.713 17.0507 151.713 19.684C151.713 22.7562 149.222 24.0071 145.308 24.0071H137.124ZM137.124 40.0483V31.2926H147.376C151.935 31.2926 153.959 32.9384 153.959 35.6156C153.959 38.6878 151.602 40.0483 147.665 40.0483H137.124ZM170.104 47.7508H200.861V39.9386H178.933V31.5778H197.97V23.7657H178.933V15.6902H200.549V7.89997H170.082L170.104 47.7508ZM208.755 47.7508H237.755V39.785H217.606V7.89997H208.733L208.755 47.7508ZM250.698 48.036H258.526L274.871 7.89997H265.286L254.723 35.9667L244.182 7.89997H234.374L250.698 48.036ZM297.933 48.4091C305.316 48.4091 311.031 45.5563 315.19 42.0891V24.7971H297.644V32.3678H306.584V38.0514C304.337 39.6533 301.424 40.4433 298.222 40.4433C291.061 40.4433 285.99 35.0889 285.99 27.8034C285.99 20.891 291.128 15.2732 297.577 15.2732C302.247 15.2732 305.027 16.7435 308.118 19.3329L313.722 12.6619C309.519 9.12885 305.116 7.19775 297.866 7.19775C285.635 7.19775 276.695 16.4802 276.695 27.8034C276.717 39.7192 285.368 48.4091 297.933 48.4091ZM128.473 71.9772H129.963V66.2717H137.147V64.9112H129.963V60.237H138.014V58.8765H128.473V71.9772V71.9772ZM146.776 72.1967C150.823 72.1967 153.559 69.0367 153.559 65.4159C153.559 61.7731 150.846 58.6351 146.798 58.6351C142.751 58.6351 140.015 61.7951 140.015 65.4159C140.038 69.0806 142.751 72.1967 146.776 72.1967ZM146.82 70.8581C143.774 70.8581 141.594 68.4223 141.594 65.4598C141.594 62.4534 143.751 60.0615 146.776 60.0615C149.823 60.0615 152.002 62.4973 152.002 65.4598C152.024 68.4442 149.867 70.8581 146.82 70.8581ZM156.739 71.9772H158.229V66.8862H162.032L165.879 71.9772H167.725L163.633 66.6228C165.723 66.2498 167.236 64.977 167.236 62.8045C167.236 61.7293 166.835 60.8295 166.213 60.1932C165.39 59.3593 164.078 58.8765 162.432 58.8765H156.717L156.739 71.9772ZM158.251 65.5695V60.237H162.365C164.5 60.237 165.768 61.2026 165.768 62.8265C165.768 64.5381 164.322 65.5695 162.343 65.5695H158.251ZM180.69 72.1528C183.336 72.1528 185.227 70.7045 185.227 68.4442C185.227 66.4034 183.848 65.3501 180.89 64.6917C177.977 64.0553 177.287 63.3751 177.287 62.1462C177.287 60.9393 178.399 59.9957 180.112 59.9957C181.491 59.9957 182.714 60.4126 183.959 61.422L184.826 60.2809C183.492 59.2057 182.091 58.6571 180.179 58.6571C177.666 58.6571 175.82 60.1712 175.82 62.234C175.82 64.4284 177.221 65.394 180.267 66.0523C183.047 66.6228 183.714 67.325 183.714 68.532C183.714 69.8706 182.536 70.7922 180.757 70.7922C178.911 70.7922 177.599 70.1559 176.198 68.9489L175.264 70.0461C176.887 71.4725 178.577 72.1528 180.69 72.1528ZM193.611 72.1747C196.924 72.1747 199.148 70.1997 199.148 66.3814V58.8765H197.658V66.4912C197.658 69.3659 196.101 70.8142 193.655 70.8142C191.12 70.8142 189.585 69.2342 189.585 66.4034V58.8765H188.096V66.4912C188.073 70.1997 190.319 72.1747 193.611 72.1747ZM208.755 72.1967C211.179 72.1967 212.692 71.3408 214.07 69.9803L213.092 68.9489C211.824 70.1339 210.623 70.8361 208.8 70.8361C205.887 70.8361 203.64 68.4442 203.64 65.4378C203.64 62.3876 205.842 60.0395 208.8 60.0395C210.601 60.0395 211.846 60.7856 212.958 61.839L213.937 60.7857C212.603 59.5568 211.202 58.6571 208.778 58.6571C204.886 58.6571 202.061 61.7293 202.061 65.4378C202.084 69.2342 204.93 72.1967 208.755 72.1967ZM222.388 72.1967C224.789 72.1967 226.302 71.3408 227.703 69.9803L226.724 68.9489C225.457 70.1339 224.256 70.8361 222.432 70.8361C219.519 70.8361 217.273 68.4442 217.273 65.4378C217.273 62.3876 219.474 60.0395 222.432 60.0395C224.233 60.0395 225.479 60.7856 226.591 61.839L227.569 60.7857C226.235 59.5568 224.834 58.6571 222.41 58.6571C218.518 58.6571 215.694 61.7293 215.694 65.4378C215.716 69.2342 218.54 72.1967 222.388 72.1967ZM230.305 71.9772H239.978V70.6167H231.795V66.0523H239.044V64.6917H231.795V60.2151H239.89V58.8546H230.282V71.9772H230.305ZM247.584 72.1528C250.231 72.1528 252.121 70.7045 252.121 68.4442C252.121 66.4034 250.742 65.3501 247.784 64.6917C244.871 64.0553 244.182 63.3751 244.182 62.1462C244.182 60.9393 245.294 59.9957 247.006 59.9957C248.385 59.9957 249.608 60.4126 250.853 61.422L251.743 60.2809C250.386 59.2057 249.007 58.6571 247.073 58.6571C244.56 58.6571 242.714 60.1712 242.714 62.234C242.714 64.4284 244.115 65.394 247.162 66.0523C249.941 66.6228 250.631 67.325 250.631 68.532C250.631 69.8706 249.452 70.7922 247.673 70.7922C245.827 70.7922 244.493 70.1559 243.114 68.9489L242.18 70.0461C243.737 71.4725 245.471 72.1528 247.584 72.1528ZM259.526 72.1528C262.173 72.1528 264.063 70.7045 264.063 68.4442C264.063 66.4034 262.684 65.3501 259.727 64.6917C256.813 64.0553 256.124 63.3751 256.124 62.1462C256.124 60.9393 257.236 59.9957 258.948 59.9957C260.327 59.9957 261.55 60.4126 262.795 61.422L263.663 60.2809C262.306 59.2057 260.927 58.6571 258.993 58.6571C256.48 58.6571 254.634 60.1712 254.634 62.234C254.634 64.4284 256.035 65.394 259.082 66.0523C261.861 66.6228 262.529 67.325 262.529 68.532C262.529 69.8706 261.35 70.7922 259.571 70.7922C257.725 70.7922 256.413 70.1559 255.012 68.9489L254.078 70.0461C255.679 71.4725 257.414 72.1528 259.526 72.1528ZM267.11 71.9772H268.6V66.2717H275.783V64.9112H268.6V60.237H276.65V58.8765H267.11V71.9772ZM284.856 72.1747C288.17 72.1747 290.394 70.1997 290.394 66.3814V58.8765H288.904V66.4912C288.904 69.3659 287.347 70.8142 284.901 70.8142C282.366 70.8142 280.831 69.2342 280.831 66.4034V58.8765H279.341V66.4912C279.341 70.1997 281.565 72.1747 284.856 72.1747ZM293.952 71.9772H302.914V70.6167H295.442V58.8765H293.952V71.9772ZM128.473 92.6926H138.147V91.3321H129.963V86.7677H137.213V85.4071H129.963V80.9305H138.058V79.5699H128.451V92.6926H128.473ZM140.527 87.821H145.797V86.3068H140.527V87.821ZM154.982 92.934C157.384 92.934 158.896 92.0782 160.297 90.7176L159.319 89.6863C158.051 90.8712 156.828 91.5735 155.026 91.5735C152.113 91.5735 149.867 89.1815 149.867 86.1752C149.867 83.1249 152.069 80.7769 155.026 80.7769C156.828 80.7769 158.073 81.523 159.185 82.5763L160.164 81.523C158.829 80.2941 157.428 79.3944 155.004 79.3944C151.112 79.3944 148.288 82.4666 148.288 86.1752C148.333 89.9496 151.157 92.934 154.982 92.934ZM168.703 92.934C172.751 92.934 175.486 89.774 175.486 86.1532C175.486 82.5105 172.773 79.3725 168.726 79.3725C164.678 79.3725 161.943 82.5324 161.943 86.1532C161.943 89.796 164.656 92.934 168.703 92.934ZM168.726 91.5515C165.679 91.5515 163.499 89.1157 163.499 86.1532C163.499 83.1469 165.657 80.7549 168.681 80.7549C171.728 80.7549 173.907 83.1908 173.907 86.1532C173.929 89.1596 171.772 91.5515 168.726 91.5515ZM178.666 92.6926H180.112V82.1155L184.96 89.1157H185.049L189.897 82.0935V92.6926H191.387V79.5919H189.875L185.027 86.7457L180.201 79.5919H178.689L178.666 92.6926ZM195.123 92.6926H196.568V82.1155L201.417 89.1157H201.483L206.331 82.0935V92.6926H207.821V79.5919H206.309L201.461 86.7457L196.613 79.5919H195.101L195.123 92.6926ZM211.602 92.6926H221.276V91.3321H213.092V86.7677H220.342V85.4071H213.092V80.9305H221.187V79.5699H211.58L211.602 92.6926ZM224.3 92.6926H225.79V87.6016H229.593L233.44 92.6926H235.286L231.194 87.3382C233.285 86.9432 234.797 85.6705 234.797 83.5199C234.797 82.4446 234.397 81.5449 233.774 80.8866C232.929 80.0527 231.639 79.5699 229.993 79.5699H224.3V92.6926ZM225.79 86.263V80.9744H229.904C232.039 80.9744 233.285 81.9399 233.285 83.5638C233.285 85.2755 231.861 86.3068 229.882 86.3068L225.79 86.263ZM244.07 92.934C246.494 92.934 248.007 92.0782 249.386 90.7176L248.407 89.6863C247.139 90.8712 245.938 91.5735 244.115 91.5735C241.202 91.5735 238.956 89.1815 238.956 86.1752C238.956 83.1249 241.157 80.7769 244.115 80.7769C245.916 80.7769 247.162 81.523 248.296 82.5763L249.274 81.523C247.94 80.2941 246.539 79.3944 244.115 79.3944C240.223 79.3944 237.399 82.4666 237.399 86.1752C237.421 89.9496 240.245 92.934 244.07 92.934ZM252.01 92.6926H261.684V91.3321H253.5V86.7677H260.749V85.4071H253.5V80.9305H261.595V79.5699H251.987V92.6926H252.01Z" fill="black"/>
<path d="M105.034 0H0V100H105.034V0Z" fill="white"/>
<path d="M9.38469 12.7496C9.94066 12.3765 10.1853 11.8499 10.1853 11.1916C10.1853 10.4016 9.80722 9.94074 9.11782 9.54574C8.42842 9.19463 7.71678 9.21658 6.9829 9.21658H6.89395V6.31993C7.3832 6.29799 7.87245 6.2541 8.25051 6.07855C8.82872 5.81522 9.18454 5.20078 9.18454 4.60828C9.18454 3.94995 8.762 3.44524 8.18379 3.20385C7.60559 2.94052 6.84947 3.05024 6.20455 3.05024H4.62559V6.31993V9.21658V13.3202H6.89395C7.76126 13.2982 8.58409 13.2543 9.38469 12.7496ZM2.0459 97.9811H28.6657L2.0459 87.2504V97.9811ZM27.0867 6.38577C26.4196 4.43273 24.6182 3.18191 22.4611 3.18191C20.3262 3.18191 18.3247 4.54245 17.7465 6.40771L17.613 6.80271H27.2424L27.0867 6.38577ZM55.8414 55.1679C39.8295 39.368 40.1409 18.2576 56.0416 2.58941C56.2417 2.39191 56.4197 2.21636 56.6198 2.0408H35.493V13.2982H44.1216V16.1949H32.4908V2.01886H27.4648C29.1772 3.48913 30.2891 5.66161 30.2891 8.03159C30.2891 8.47047 30.2224 8.9313 30.1557 9.41408C30.1557 9.43602 30.1557 9.45796 30.1334 9.50185H17.6797L17.8132 9.91879C18.4136 11.8499 20.2372 13.1446 22.3054 13.1446C23.7732 13.1446 25.152 12.6179 25.997 11.7841H29.5775C28.4655 14.2638 25.4411 16.151 22.4611 16.151C18.0356 16.151 14.4329 12.6179 14.4329 8.27297C14.4329 5.72744 15.5448 3.51107 17.3017 2.0408H11.3862C11.8977 2.72108 12.1868 3.53301 12.1868 4.38884C12.1868 5.63966 11.5863 6.89049 10.4077 7.43909C12.1868 8.00964 13.1875 9.50185 13.1875 11.3232C13.1875 12.8813 12.4536 14.2199 11.2083 15.1415C9.91842 16.0851 8.25051 16.151 6.6938 16.1949H2.0459V68.0491L37.539 83.1468L19.5478 41.8038L33.4693 28.0667L61.7125 97.4764L61.201 97.9811H102.965V59.2934C88.1544 70.068 69.674 68.8172 55.8414 55.1679ZM90.5784 2.01886L85.0187 11.2793C78.5472 8.3827 71.6754 8.95325 66.516 14.0443C58.0876 22.3612 61.7347 34.628 69.2514 42.0452C76.9015 49.594 89.2663 52.754 97.6948 44.4371C103.254 38.951 104.633 31.9289 99.4516 25.7845L88.9994 36.0983L78.9253 26.1575L102.988 2.45775V2.01886H90.5784Z" fill="#DA2128"/>
</g>
<defs>
<clipPath id="clip0">
<rect width="315.19" height="100" fill="white"/>
</clipPath>
</defs>
</svg>
